<svg xmlns="http://www.w3.org/2000/svg" viewBox="0 0 32 32">
  <!-- BARROWLIGHT: the light you carry into the deep. A gold flame in the dark. -->
  <rect width="32" height="32" rx="6" fill="#141018"/>
  <!-- outer flame -->
  <path d="M16 4 C 20 9, 24 12, 24 19 C 24 24.5, 20.5 28, 16 28 C 11.5 28, 8 24.5, 8 19 C 8 14.5, 10.5 12.5, 12 9 C 13 11, 14.5 12, 15 11 C 15.5 9.5, 15 6.5, 16 4 Z" fill="#e8b52f"/>
  <!-- inner heart of the flame -->
  <path d="M16 14 C 18 16.5, 19.5 17.5, 19.5 21 C 19.5 24, 18 25.8, 16 25.8 C 14 25.8, 12.5 24, 12.5 21 C 12.5 18, 14.5 17, 16 14 Z" fill="#fff3c4"/>
</svg>
